<?xml version="1.0" standalone="no"?>
<!DOCTYPE svg PUBLIC "-//W3C//DTD SVG 20010904//EN"
 "http://www.w3.org/TR/2001/REC-SVG-20010904/DTD/svg10.dtd">
<svg version="1.0" xmlns="http://www.w3.org/2000/svg"
 width="93.000000pt" height="93.000000pt" viewBox="0 0 93.000000 93.000000"
 preserveAspectRatio="xMidYMid meet">
<metadata>
Created by potrace 1.11, written by Peter Selinger 2001-2013
</metadata>
<g transform="translate(0.000000,93.000000) scale(0.100000,-0.100000)"
fill="#000000" stroke="none">
<path d="M174 746 c15 -13 84 -66 152 -117 l123 -94 0 -92 c1 -51 -1 -93 -5
-93 -3 0 -36 25 -73 55 -38 30 -70 55 -72 55 -2 0 -3 -67 -1 -150 l3 -150 75
0 74 0 0 93 1 92 72 56 72 57 3 -149 3 -149 74 0 75 0 0 300 c0 165 -2 300 -5
300 -3 0 -68 -49 -145 -110 -77 -60 -142 -110 -145 -110 -3 0 -5 52 -5 115 l0
115 -152 0 -153 -1 29 -23z"/>
</g>
</svg>
